# Wavefront Obj file
# 
# verts: 143 uv-s: 210
mtllib frame.mtl

g noga

v -0.070000 -0.003000 -0.190000
v -0.070000 -0.003000 0.000000
v -0.070000 0.000000 -0.190000
v -0.070000 0.000000 0.000000
v -0.010000 0.000000 -0.066940
v -0.010000 0.000000 -0.063060
v -0.010000 0.068620 -0.190000
v -0.010000 0.070780 -0.190000
v 0.010000 0.000000 -0.066940
v 0.010000 0.000000 -0.063060
v 0.010000 0.068620 -0.190000
v 0.010000 0.070780 -0.190000
v 0.070000 -0.003000 -0.190000
v 0.070000 -0.003000 0.000000
v 0.070000 0.000000 -0.190000
v 0.070000 0.000000 0.000000
# 16 positions

vt 0.268964 0.171355
vt 0.400093 0.296121
vt 0.005000 0.296121
vt 0.400093 0.005000
vt 0.268964 0.129766
vt 0.005000 0.005000
vt 0.260896 0.129766
vt 0.260896 0.171355
vt 0.075765 0.995000
vt 0.075765 0.599907
vt 0.069527 0.995000
vt 0.069527 0.599907
vt 0.451967 0.393678
vt 0.743088 0.393678
vt 0.451967 0.387440
vt 0.743088 0.387440
vt 0.056936 0.995000
vt 0.056936 0.599907
vt 0.063175 0.995000
vt 0.063175 0.599907
vt 0.451967 0.355963
vt 0.743088 0.355963
vt 0.451967 0.362202
vt 0.743088 0.362202
vt 0.400093 0.302453
vt 0.005000 0.302453
vt 0.400093 0.593575
vt 0.005000 0.593575
vt 0.453541 0.052215
vt 0.453541 0.056706
vt 0.495130 0.052215
vt 0.495130 0.056706
vt 0.715931 0.455784
vt 0.451967 0.455784
vt 0.715931 0.414195
vt 0.451967 0.414195
vt 0.707863 0.461410
vt 0.451967 0.461410
vt 0.707863 0.502999
vt 0.451967 0.502999
vt 0.101003 0.863871
vt 0.101003 0.855802
vt 0.248186 0.599907
vt 0.243695 0.599907
vt 0.229300 0.607975
vt 0.229300 0.599907
vt 0.086609 0.863871
vt 0.082118 0.863871
# 48 texture coordinates

vn 0.000000 0.995044 0.099434
vn 0.000000 1.000000 0.000000
vn 0.000000 0.979591 0.201002
vn -1.000000 0.000000 0.000000
vn 0.000000 0.000000 -1.000000
vn 1.000000 0.000000 0.000000
vn 0.000000 0.000000 1.000000
vn 0.000000 -1.000000 0.000000
vn 0.000000 0.873403 0.486998
vn 0.000000 -0.873393 -0.487016
# 10 normals

usemtl default
s 1
f 10/1/1 16/2/2 15/3/2
f 16/2/2 10/1/1 4/4/2
f 4/4/2 10/1/1 6/5/3
f 4/4/2 6/5/3 3/6/2
f 3/6/2 6/5/3 5/7/2
f 3/6/2 5/7/2 15/3/2
f 15/3/2 5/7/2 9/8/2
f 15/3/2 9/8/2 10/1/1
f 10/33/1 12/34/9 6/35/3
f 6/35/3 12/34/9 8/36/9
s 2
f 1/9/4 2/10/4 3/11/4
f 3/11/4 2/10/4 4/12/4
f 5/45/4 6/46/4 7/47/4
f 7/47/4 6/46/4 8/48/4
s 3
f 13/13/5 1/14/5 15/15/5
f 15/15/5 1/14/5 3/16/5
f 12/29/5 11/30/5 8/31/5
f 8/31/5 11/30/5 7/32/5
s 4
f 14/17/6 13/18/6 16/19/6
f 16/19/6 13/18/6 15/20/6
f 10/41/6 9/42/6 12/43/6
f 12/43/6 9/42/6 11/44/6
s 5
f 2/21/7 14/22/7 4/23/7
f 4/23/7 14/22/7 16/24/7
s 6
f 13/25/8 14/26/8 1/27/8
f 1/27/8 14/26/8 2/28/8
s 7
f 11/37/10 9/38/10 7/39/10
f 7/39/10 9/38/10 5/40/10

g frame

v -0.070000 -0.007000 -0.190000
v -0.070000 -0.007000 0.000000
v -0.070000 -0.003000 -0.190000
v -0.070000 -0.003000 0.000000
v -0.068000 -0.009000 -0.188000
v -0.068000 -0.009000 -0.002000
v -0.065710 -0.009000 -0.185710
v -0.065710 -0.009000 -0.004290
v -0.064680 -0.008780 -0.184680
v -0.064680 -0.008780 -0.005320
v -0.064410 -0.008720 -0.184400
v -0.064410 -0.008720 -0.005590
v -0.063730 -0.008370 -0.183730
v -0.063730 -0.008370 -0.006270
v -0.062910 -0.007940 -0.182910
v -0.062910 -0.007940 -0.007090
v -0.061920 -0.007260 -0.181920
v -0.061920 -0.007260 -0.008080
v -0.061070 -0.006670 -0.181070
v -0.061070 -0.006670 -0.008930
v -0.060130 -0.006170 -0.180120
v -0.060130 -0.006170 -0.009880
v -0.059700 -0.005940 -0.179700
v -0.059700 -0.005940 -0.010300
v -0.059180 -0.005830 -0.179180
v -0.059180 -0.005830 -0.010820
v -0.058180 -0.005610 -0.178180
v -0.058180 -0.005610 -0.011820
v -0.058070 -0.005590 -0.178070
v -0.058070 -0.005590 -0.011930
v -0.056090 -0.005590 -0.176080
v -0.056090 -0.005590 -0.013910
v -0.055730 -0.005590 -0.175730
v -0.055730 -0.005590 -0.014270
v -0.053950 -0.005610 -0.173950
v -0.053950 -0.005610 -0.016050
v -0.053210 -0.005620 -0.173210
v -0.053210 -0.005620 -0.016790
v -0.052900 -0.005570 -0.172900
v -0.052900 -0.005570 -0.017100
v -0.051880 -0.005410 -0.171880
v -0.051880 -0.005410 -0.018120
v -0.051760 -0.005390 -0.171760
v -0.051760 -0.005390 -0.018240
v -0.050920 -0.005030 -0.170920
v -0.050920 -0.005030 -0.019080
v -0.050550 -0.004880 -0.170550
v -0.050550 -0.004880 -0.019450
v -0.050000 -0.004490 -0.170000
v -0.050000 -0.004490 -0.020000
v -0.050000 -0.003000 -0.170000
v -0.050000 -0.003000 -0.020000
v 0.000000 -0.009000 -0.185710
v 0.000000 -0.008830 -0.184730
v 0.000000 -0.008810 -0.184680
v 0.000000 -0.008390 -0.183720
v 0.000000 -0.008280 -0.183470
v 0.000000 -0.007240 -0.181930
v 0.000000 -0.006920 -0.181450
v 0.000000 -0.006140 -0.180130
v 0.000000 -0.006090 -0.180030
v 0.000000 -0.005820 -0.179170
v 0.000000 -0.005670 -0.178710
v 0.000000 -0.005640 -0.174190
v 0.000000 -0.005640 -0.173950
v 0.000000 -0.005640 -0.178180
v 0.000000 -0.005620 -0.173230
v 0.000000 -0.005570 -0.176080
v 0.000000 -0.005570 -0.172900
v 0.000000 -0.005550 -0.176820
v 0.000000 -0.005410 -0.171880
v 0.000000 -0.005390 -0.171760
v 0.000000 -0.005050 -0.170920
v 0.000000 -0.004960 -0.170700
v 0.000000 -0.004490 -0.170000
v 0.050000 -0.004490 -0.170000
v 0.050000 -0.004490 -0.020000
v 0.050000 -0.003000 -0.170000
v 0.050000 -0.003000 -0.020000
v 0.050550 -0.004880 -0.170550
v 0.050550 -0.004880 -0.019450
v 0.050920 -0.005030 -0.170920
v 0.050920 -0.005030 -0.019080
v 0.051760 -0.005390 -0.171760
v 0.051760 -0.005390 -0.018240
v 0.051880 -0.005410 -0.171880
v 0.051880 -0.005410 -0.018120
v 0.052900 -0.005570 -0.172900
v 0.052900 -0.005570 -0.017100
v 0.053210 -0.005620 -0.173210
v 0.053210 -0.005620 -0.016790
v 0.053950 -0.005610 -0.173950
v 0.053950 -0.005610 -0.016050
v 0.055730 -0.005590 -0.175730
v 0.055730 -0.005590 -0.014270
v 0.056090 -0.005590 -0.176080
v 0.056090 -0.005590 -0.013910
v 0.058070 -0.005590 -0.178070
v 0.058070 -0.005590 -0.011930
v 0.058180 -0.005610 -0.178180
v 0.058180 -0.005610 -0.011820
v 0.059180 -0.005830 -0.179180
v 0.059180 -0.005830 -0.010820
v 0.059700 -0.005940 -0.179700
v 0.059700 -0.005940 -0.010300
v 0.060130 -0.006170 -0.180120
v 0.060130 -0.006170 -0.009880
v 0.061070 -0.006670 -0.181070
v 0.061070 -0.006670 -0.008930
v 0.061920 -0.007260 -0.181920
v 0.061920 -0.007260 -0.008080
v 0.062910 -0.007940 -0.182910
v 0.062910 -0.007940 -0.007090
v 0.063730 -0.008370 -0.183730
v 0.063730 -0.008370 -0.006270
v 0.064410 -0.008720 -0.184400
v 0.064410 -0.008720 -0.005590
v 0.064680 -0.008780 -0.184680
v 0.064680 -0.008780 -0.005320
v 0.065710 -0.009000 -0.185710
v 0.065710 -0.009000 -0.004290
v 0.068000 -0.009000 -0.188000
v 0.068000 -0.009000 -0.002000
v 0.070000 -0.007000 -0.190000
v 0.070000 -0.007000 0.000000
v 0.070000 -0.003000 -0.190000
v 0.070000 -0.003000 0.000000
# 127 positions

vt 0.659911 0.518068
vt 0.659911 0.521166
vt 0.555939 0.518068
vt 0.451967 0.521166
vt 0.451967 0.518068
vt 0.447915 0.046589
vt 0.406326 0.005000
vt 0.759831 0.046589
vt 0.801419 0.005000
vt 0.759831 0.254533
vt 0.801419 0.296121
vt 0.447915 0.254533
vt 0.406326 0.296121
vt 0.743088 0.408348
vt 0.743088 0.400031
vt 0.451967 0.408348
vt 0.451967 0.400031
vt 0.413673 0.317669
vt 0.790925 0.317669
vt 0.795687 0.312907
vt 0.790925 0.454309
vt 0.795687 0.595711
vt 0.790925 0.590949
vt 0.408911 0.595711
vt 0.413673 0.590949
vt 0.408911 0.312907
vt 0.762166 0.454309
vt 0.761916 0.454309
vt 0.760170 0.560194
vt 0.760170 0.454309
vt 0.759400 0.559425
vt 0.775267 0.454309
vt 0.772439 0.454309
vt 0.770900 0.570945
vt 0.770900 0.454309
vt 0.770172 0.570197
vt 0.766470 0.566495
vt 0.761916 0.561941
vt 0.762166 0.562191
vt 0.764287 0.454309
vt 0.764287 0.564312
vt 0.764973 0.454309
vt 0.764932 0.564956
vt 0.766470 0.454309
vt 0.766970 0.454309
vt 0.788783 0.588807
vt 0.788887 0.454309
vt 0.788783 0.454309
vt 0.779322 0.454309
vt 0.779113 0.454309
vt 0.777346 0.577371
vt 0.783043 0.583068
vt 0.785102 0.585127
vt 0.786787 0.454309
vt 0.786807 0.586832
vt 0.788201 0.588246
vt 0.778427 0.578452
vt 0.779300 0.579346
vt 0.782066 0.454309
vt 0.781276 0.581301
vt 0.783064 0.454309
vt 0.786267 0.454309
vt 0.758257 0.558281
vt 0.759712 0.454309
vt 0.758257 0.454309
vt 0.775038 0.575062
vt 0.775267 0.575291
vt 0.776369 0.454309
vt 0.777325 0.454309
vt 0.008098 0.911822
vt 0.005000 0.911822
vt 0.008098 0.599907
vt 0.005000 0.599907
vt 0.022761 0.599907
vt 0.014443 0.599907
vt 0.022761 0.995000
vt 0.014443 0.995000
vt 0.444428 0.560194
vt 0.445197 0.559425
vt 0.442681 0.561941
vt 0.442432 0.562191
vt 0.440310 0.564312
vt 0.439666 0.564956
vt 0.438127 0.566495
vt 0.415815 0.588807
vt 0.416376 0.588246
vt 0.417790 0.586832
vt 0.425297 0.579346
vt 0.421554 0.583068
vt 0.423322 0.581301
vt 0.419495 0.585127
vt 0.446341 0.558281
vt 0.434426 0.570197
vt 0.433677 0.570945
vt 0.429560 0.575062
vt 0.429331 0.575291
vt 0.427252 0.577371
vt 0.426170 0.578452
vt 0.451967 0.508625
vt 0.451967 0.511723
vt 0.659911 0.508625
vt 0.659911 0.511723
vt 0.743088 0.372713
vt 0.743088 0.381031
vt 0.451967 0.372713
vt 0.451967 0.381031
vt 0.434426 0.338422
vt 0.433677 0.337674
vt 0.429331 0.333328
vt 0.429560 0.333556
vt 0.438127 0.342124
vt 0.444428 0.348424
vt 0.445197 0.349194
vt 0.442681 0.346678
vt 0.442432 0.346428
vt 0.440310 0.344307
vt 0.439666 0.343662
vt 0.415815 0.319811
vt 0.416376 0.320373
vt 0.417790 0.321787
vt 0.446341 0.350337
vt 0.427252 0.331248
vt 0.426170 0.330167
vt 0.425297 0.329273
vt 0.423322 0.327318
vt 0.421554 0.325550
vt 0.419495 0.323492
vt 0.028607 0.911822
vt 0.031706 0.911822
vt 0.028607 0.599907
vt 0.031706 0.599907
vt 0.042209 0.599907
vt 0.050527 0.599907
vt 0.042209 0.995000
vt 0.050527 0.995000
vt 0.760170 0.348424
vt 0.761916 0.346678
vt 0.762166 0.346428
vt 0.764287 0.344307
vt 0.764932 0.343662
vt 0.766470 0.342124
vt 0.788783 0.319811
vt 0.788201 0.320373
vt 0.786807 0.321787
vt 0.779300 0.329273
vt 0.783043 0.325550
vt 0.781276 0.327318
vt 0.785102 0.323492
vt 0.758257 0.350337
vt 0.759400 0.349194
vt 0.770172 0.338422
vt 0.770900 0.337674
vt 0.775038 0.333556
vt 0.775267 0.333328
vt 0.777346 0.331248
vt 0.778427 0.330167
vt 0.738929 0.368554
vt 0.456126 0.368554
vt 0.799846 0.308749
vt 0.038050 0.990841
vt 0.799846 0.599870
vt 0.404752 0.599870
# 162 texture coordinates

vn 0.000000 0.000000 1.000000
vn 0.000000 1.000000 0.000000
vn 0.000000 1.000000 0.000000
vn 0.000000 1.000000 0.000000
vn 0.000000 0.000000 -1.000000
vn -0.070185 -0.996917 -0.035093
vn -0.034671 -0.991305 0.126934
vn 0.000000 -1.000000 0.000000
vn -0.000105 -0.995742 0.092185
vn 0.000000 -1.000000 0.000000
vn 0.070185 -0.996917 0.035093
vn 0.000000 -1.000000 0.000000
vn 0.035093 -0.996917 -0.070185
vn 0.000000 -1.000000 0.000000
vn -0.000531 -0.981047 0.193769
vn -0.000931 -0.968209 0.250140
vn 0.224310 -0.959404 0.170966
vn -0.000198 -0.914288 0.405066
vn 0.255309 -0.932532 0.255345
vn -0.000101 -0.994706 0.102765
vn 0.000323 -0.999880 0.015480
vn -0.001207 -0.999987 0.004927
vn -0.000080 -0.999799 -0.020047
vn -0.002617 -0.999992 -0.003003
vn 0.014810 -0.999860 -0.007756
vn 0.143217 -0.979207 0.143673
vn 0.126702 -0.989554 0.068773
vn -0.000009 -0.988077 0.153961
vn 0.078683 -0.993859 0.077799
vn 0.000001 -0.994675 0.103063
vn 0.029099 -0.998963 0.035014
vn 0.000128 -0.999996 0.002706
vn -0.000126 -0.999829 -0.018509
vn 0.140229 -0.982463 0.122892
vn 0.000522 -0.962122 0.272618
vn 0.000510 -0.937424 0.348189
vn 0.000154 -0.897838 0.440326
vn 0.000477 -0.918198 0.396121
vn 0.081317 -0.978722 0.188388
vn -0.000728 -0.850415 0.526112
vn 0.000514 -0.856680 0.515848
vn -0.000520 -0.906993 0.421146
vn 0.000023 -0.896585 0.442871
vn 0.175034 -0.968896 0.174939
vn 0.234626 -0.964756 0.119146
vn 0.000104 -0.874468 0.485083
vn -0.000057 -0.849447 0.527674
vn -0.000106 -0.847322 0.531080
vn -0.000076 -0.827964 0.560781
vn -0.000949 -0.875539 0.483146
vn -0.000643 -0.861869 0.507130
vn -0.000854 -0.882425 0.470452
vn -0.000113 -0.825453 0.564471
vn 0.035684 -0.998706 0.036225
vn 0.096249 -0.992481 0.075620
vn -0.000367 -0.981650 0.190694
vn 0.000144 -0.958399 0.285431
vn 1.000000 0.000000 0.000000
vn -1.000000 0.000000 0.000000
vn 0.173335 -0.958878 -0.224742
vn 0.255564 -0.932539 -0.255064
vn 0.143939 -0.979208 -0.142947
vn 0.068863 -0.989562 -0.126590
vn 0.065951 -0.995537 -0.067510
vn 0.024275 -0.998506 -0.048949
vn -0.005973 -0.999974 0.004108
vn 0.092526 -0.982788 -0.159894
vn 0.175479 -0.968825 -0.174887
vn 0.307748 -0.941456 -0.137665
vn 0.470633 -0.882329 0.000000
vn 0.470633 -0.882329 0.000000
vn 0.568198 -0.822892 0.000000
vn 0.568198 -0.822892 0.000000
vn 0.520819 -0.853667 0.000000
vn 0.520819 -0.853667 0.000000
vn 0.461028 -0.887385 0.000000
vn 0.516204 -0.856466 0.000000
vn 0.516204 -0.856465 0.000000
vn 0.513500 -0.858090 0.000144
vn 0.578427 -0.815734 0.000000
vn -0.002849 -0.999992 0.002768
vn -0.000021 -0.999999 0.001573
vn 0.051442 -0.997350 -0.051442
vn 0.122921 -0.989225 -0.079524
vn 0.105983 -0.988560 -0.107315
vn 0.140607 -0.972574 -0.185283
vn 0.002786 -0.999992 0.002831
vn 0.001583 -0.999999 0.000015
vn -0.082575 -0.990094 -0.113561
vn -0.035958 -0.998706 -0.035958
vn -0.013350 -0.999896 0.005534
vn -0.224755 -0.958896 -0.173214
vn -0.255263 -0.932536 -0.255376
vn -0.143150 -0.979207 -0.143742
vn -0.126702 -0.989554 -0.068776
vn -0.078683 -0.993733 -0.079399
vn -0.036529 -0.998658 -0.036704
vn -0.159975 -0.982779 -0.092486
vn -0.175035 -0.968824 -0.175336
vn -0.137625 -0.941485 -0.307676
vn 0.000000 -0.856465 -0.516204
vn 0.000217 -0.858211 -0.513296
vn 0.000000 -0.815732 -0.578430
vn -0.107315 -0.988560 -0.105983
vn -0.202674 -0.963599 -0.174355
vn 0.000000 -0.879732 -0.475470
vn 0.000000 -0.882339 -0.470616
vn 0.000000 -0.865214 -0.501402
vn 0.000000 -0.844038 -0.536283
vn 0.000000 -0.822427 -0.568871
vn 0.000000 -0.823357 -0.567524
vn -0.228429 -0.964500 0.132512
vn -0.114740 -0.974640 0.192126
vn -0.079562 -0.993523 0.081134
vn -0.065951 -0.995537 0.067510
vn -0.024181 -0.998229 0.054353
vn 0.006157 -0.999973 -0.003923
vn -0.107978 -0.984448 0.138577
vn -0.175791 -0.968893 0.174198
vn -0.307755 -0.941317 0.138598
vn -0.470633 -0.882329 0.000000
vn -0.470633 -0.882329 0.000000
vn -0.568198 -0.822892 0.000000
vn -0.568198 -0.822892 0.000000
vn -0.520819 -0.853667 0.000000
vn -0.520819 -0.853667 0.000000
vn -0.516204 -0.856465 0.000000
vn -0.516204 -0.856465 0.000000
vn -0.578427 -0.815734 0.000000
vn -0.513500 -0.858090 -0.000144
vn -0.168660 -0.927160 0.334557
vn 0.002030 -0.999966 -0.008014
vn -0.000236 -0.999989 -0.004681
vn -0.059880 -0.997363 0.041016
vn -0.122723 -0.989234 0.079719
vn -0.091262 -0.989267 0.114115
vn -0.140731 -0.968677 0.204598
vn 0.000214 -0.866148 0.499787
vn 0.000000 -0.815736 0.578424
vn -0.000496 -0.885720 0.464219
vn -0.000115 -0.856964 0.515376
vn -0.000300 -0.826055 0.563589
vn 0.000000 -0.707107 0.707107
vn 0.707107 -0.707107 0.000000
vn 0.707107 -0.707107 0.000000
vn 0.707107 -0.707107 0.000000
vn -0.707107 -0.707107 0.000000
vn -0.707107 -0.707107 0.000000
vn -0.707107 -0.707107 0.000000
vn 0.000000 -0.707108 -0.707105
vn 0.000000 -0.707108 -0.707105
# 151 normals

usemtl default
s 8
f 92/49/11 94/50/11 91/51/11
f 91/51/11 94/50/11 67/52/11
f 91/51/11 67/52/11 65/53/11
f 141/151/11 143/152/11 18/153/11
f 18/153/11 143/152/11 20/154/11
s 9
f 67/54/12 19/55/13 68/56/13
f 68/56/13 19/55/13 20/57/13
f 68/56/13 20/57/13 95/58/14
f 95/58/14 20/57/13 143/59/14
f 95/58/14 143/59/14 94/60/14
f 94/60/14 143/59/14 142/61/12
f 94/60/14 142/61/12 67/54/12
f 67/54/12 142/61/12 19/55/13
s 10
f 17/62/15 19/63/15 140/64/15
f 140/64/15 19/63/15 142/65/15
f 95/147/15 93/148/15 68/149/15
f 68/149/15 93/148/15 66/150/15
s 11
f 137/66/16 136/67/17 138/68/18
f 138/68/18 136/67/17 69/69/19
f 138/68/18 69/69/19 21/70/20
f 21/70/20 69/69/19 23/71/21
f 21/70/20 23/71/21 22/72/22
f 22/72/22 23/71/21 24/73/23
f 22/72/22 24/73/23 139/74/24
f 139/74/24 24/73/23 137/66/16
f 139/74/24 137/66/16 138/68/18
f 87/75/25 88/76/26 61/77/27
f 61/77/27 88/76/26 89/78/28
f 61/77/27 89/78/28 63/79/29
f 82/80/30 86/81/31 47/82/32
f 47/82/32 86/81/31 84/83/33
f 47/82/32 84/83/33 49/84/34
f 49/84/34 84/83/33 51/85/35
f 61/77/27 59/86/36 87/75/25
f 87/75/25 59/86/36 57/87/37
f 87/75/25 57/87/37 85/88/38
f 85/88/38 57/87/37 55/89/39
f 85/88/38 55/89/39 83/90/40
f 83/90/40 55/89/39 53/91/41
f 83/90/40 53/91/41 81/92/42
f 81/92/42 53/91/41 51/85/35
f 81/92/42 51/85/35 80/93/43
f 80/93/43 51/85/35 84/83/33
f 23/71/21 69/69/19 25/94/44
f 25/94/44 69/69/19 70/95/45
f 25/94/44 70/95/45 71/96/46
f 76/97/47 77/98/48 41/99/49
f 33/100/50 31/101/51 72/102/52
f 72/102/52 31/101/51 29/103/53
f 72/102/52 29/103/53 71/96/46
f 71/96/46 29/103/53 27/104/54
f 71/96/46 27/104/54 25/94/44
f 41/99/49 39/105/55 76/97/47
f 76/97/47 39/105/55 37/106/56
f 76/97/47 37/106/56 75/107/57
f 75/107/57 37/106/56 35/108/58
f 75/107/57 35/108/58 74/109/59
f 74/109/59 35/108/58 33/100/50
f 74/109/59 33/100/50 73/110/60
f 73/110/60 33/100/50 72/102/52
f 63/79/29 89/78/28 65/111/61
f 65/111/61 89/78/28 90/112/62
f 65/111/61 90/112/62 91/113/63
f 47/82/32 45/114/64 82/80/30
f 82/80/30 45/114/64 43/115/65
f 82/80/30 43/115/65 79/116/66
f 79/116/66 43/115/65 41/99/49
f 79/116/66 41/99/49 78/117/67
f 78/117/67 41/99/49 77/98/48
f 57/87/37 59/86/36 62/126/70
f 62/126/70 59/86/36 61/77/27
f 62/126/70 61/77/27 64/127/71
f 62/126/70 60/128/72 57/87/37
f 57/87/37 60/128/72 58/129/73
f 57/87/37 58/129/73 55/89/39
f 55/89/39 58/129/73 56/130/74
f 55/89/39 56/130/74 53/91/41
f 53/91/41 56/130/74 51/85/35
f 56/130/74 54/131/75 51/85/35
f 51/85/35 54/131/75 52/132/76
f 51/85/35 52/132/76 49/84/34
f 49/84/34 52/132/76 47/82/32
f 24/73/23 23/71/21 26/133/77
f 26/133/77 23/71/21 25/94/44
f 26/133/77 25/94/44 28/134/78
f 28/134/78 25/94/44 30/135/79
f 38/136/80 37/106/81 39/105/55
f 34/137/82 33/100/83 35/108/84
f 37/106/81 38/136/80 35/108/84
f 35/108/84 38/136/80 36/138/85
f 35/108/84 36/138/85 34/137/82
f 25/94/44 27/104/54 30/135/79
f 30/135/79 27/104/54 29/103/86
f 30/135/79 29/103/86 31/101/87
f 33/100/83 34/137/82 31/101/87
f 31/101/87 34/137/82 32/139/88
f 31/101/87 32/139/88 30/135/79
f 64/127/71 61/77/27 66/140/89
f 66/140/89 61/77/27 63/79/29
f 66/140/89 63/79/29 65/111/90
f 52/132/76 50/141/91 47/82/32
f 47/82/32 50/141/91 48/142/92
f 47/82/32 48/142/92 45/114/64
f 45/114/64 48/142/92 46/143/93
f 45/114/64 46/143/93 43/115/65
f 43/115/65 46/143/93 44/144/94
f 43/115/65 44/144/94 41/99/49
f 41/99/49 44/144/94 42/145/95
f 41/99/49 42/145/95 39/105/55
f 39/105/55 42/145/95 40/146/96
f 39/105/55 40/146/96 38/136/80
f 111/155/97 113/156/98 48/142/92
f 117/157/99 44/144/94 46/143/93
f 48/142/92 113/156/98 46/143/93
f 46/143/93 113/156/98 115/158/100
f 46/143/93 115/158/100 117/157/99
f 109/159/101 52/132/76 54/131/75
f 58/129/73 60/128/72 99/160/102
f 99/160/102 60/128/72 62/126/70
f 99/160/102 62/126/70 97/161/103
f 99/160/102 101/162/104 58/129/73
f 58/129/73 101/162/104 103/163/105
f 58/129/73 103/163/105 56/130/74
f 56/130/74 103/163/105 105/164/106
f 56/130/74 105/164/106 54/131/75
f 54/131/75 105/164/106 107/165/107
f 54/131/75 107/165/107 109/159/101
f 111/155/97 48/142/92 109/159/101
f 109/159/101 48/142/92 50/141/91
f 109/159/101 50/141/91 52/132/76
f 137/66/16 24/73/23 135/166/108
f 135/166/108 24/73/23 26/133/77
f 135/166/108 26/133/77 133/167/109
f 133/167/109 26/133/77 131/168/110
f 26/133/77 28/134/78 131/168/110
f 131/168/110 28/134/78 30/135/79
f 131/168/110 30/135/79 32/139/111
f 97/161/103 62/126/70 93/169/112
f 93/169/112 62/126/70 64/127/71
f 93/169/112 64/127/71 66/140/113
f 44/144/94 117/157/99 42/145/95
f 42/145/95 117/157/99 119/170/114
f 42/145/95 119/170/114 40/146/96
f 40/146/96 119/170/114 121/171/115
f 40/146/96 121/171/115 38/136/116
f 38/136/116 121/171/115 123/172/117
f 38/136/116 123/172/117 36/138/118
f 36/138/118 123/172/117 125/173/119
f 36/138/118 125/173/119 34/137/120
f 34/137/120 125/173/119 127/174/121
f 34/137/120 127/174/121 32/139/111
f 32/139/111 127/174/121 129/175/111
f 32/139/111 129/175/111 131/168/110
f 101/162/104 99/160/102 98/184/122
f 101/162/104 98/184/122 103/163/105
f 98/184/122 100/185/123 103/163/105
f 103/163/105 100/185/123 102/186/124
f 103/163/105 102/186/124 105/164/106
f 105/164/106 102/186/124 104/187/125
f 105/164/106 104/187/125 107/165/107
f 107/165/107 104/187/125 109/159/101
f 104/187/125 106/188/126 109/159/101
f 109/159/101 106/188/126 108/189/127
f 109/159/101 108/189/127 111/155/97
f 111/155/97 108/189/127 113/156/98
f 136/67/17 137/66/16 134/190/128
f 134/190/128 137/66/16 135/166/108
f 134/190/128 135/166/108 132/191/129
f 132/191/129 135/166/108 130/192/130
f 122/193/131 123/172/132 121/171/115
f 126/194/133 127/174/134 125/173/135
f 123/172/132 122/193/131 125/173/135
f 125/173/135 122/193/131 124/195/136
f 125/173/135 124/195/136 126/194/133
f 135/166/108 133/167/109 130/192/130
f 130/192/130 133/167/109 131/168/110
f 130/192/130 131/168/110 129/175/137
f 127/174/134 126/194/133 129/175/137
f 129/175/137 126/194/133 128/196/138
f 129/175/137 128/196/138 130/192/130
f 97/161/103 93/169/139 92/197/140
f 97/161/103 92/197/140 99/160/102
f 99/160/102 92/197/140 96/198/141
f 99/160/102 96/198/141 98/184/122
f 108/189/127 110/199/142 113/156/98
f 113/156/98 110/199/142 112/200/143
f 113/156/98 112/200/143 115/158/100
f 115/158/100 112/200/143 114/201/144
f 115/158/100 114/201/144 117/157/99
f 117/157/99 114/201/144 116/202/145
f 117/157/99 116/202/145 119/170/114
f 119/170/114 116/202/145 118/203/146
f 119/170/114 118/203/146 121/171/115
f 121/171/115 118/203/146 120/204/147
f 121/171/115 120/204/147 122/193/131
f 100/185/123 89/78/28 88/76/26
f 100/185/123 88/76/26 102/186/124
f 102/186/124 88/76/26 87/75/25
f 102/186/124 87/75/25 104/187/125
f 104/187/125 87/75/25 85/88/38
f 104/187/125 85/88/38 106/188/126
f 85/88/38 83/90/40 106/188/126
f 106/188/126 83/90/40 81/92/42
f 106/188/126 81/92/42 108/189/127
f 108/189/127 81/92/42 110/199/142
f 70/95/45 69/69/19 136/67/17
f 70/95/45 136/67/17 71/96/46
f 71/96/46 136/67/17 134/190/128
f 71/96/46 134/190/128 72/102/52
f 134/190/128 132/191/129 72/102/52
f 72/102/52 132/191/129 130/192/130
f 72/102/52 130/192/130 128/196/148
f 96/198/141 92/197/149 91/113/63
f 100/185/123 98/184/122 89/78/28
f 89/78/28 98/184/122 96/198/141
f 89/78/28 96/198/141 90/112/62
f 90/112/62 96/198/141 91/113/63
f 81/92/42 80/93/43 110/199/142
f 110/199/142 80/93/43 84/83/33
f 110/199/142 84/83/33 112/200/143
f 112/200/143 84/83/33 86/81/31
f 112/200/143 86/81/31 114/201/144
f 114/201/144 86/81/31 82/80/30
f 114/201/144 82/80/30 116/202/145
f 116/202/145 82/80/30 118/203/146
f 82/80/30 79/116/66 118/203/146
f 118/203/146 79/116/66 78/117/67
f 118/203/146 78/117/67 120/204/147
f 120/204/147 78/117/67 77/98/48
f 120/204/147 77/98/48 122/193/150
f 122/193/150 77/98/48 76/97/47
f 122/193/150 76/97/47 124/195/151
f 124/195/151 76/97/47 75/107/57
f 124/195/151 75/107/57 126/194/152
f 126/194/152 75/107/57 74/109/59
f 126/194/152 74/109/59 128/196/148
f 128/196/148 74/109/59 73/110/60
f 128/196/148 73/110/60 72/102/52
s 12
f 68/118/68 66/119/68 67/120/68
f 67/120/68 66/119/68 65/121/68
f 140/180/68 142/181/68 141/182/68
f 141/182/68 142/181/68 143/183/68
s 13
f 18/122/69 20/123/69 17/124/69
f 17/124/69 20/123/69 19/125/69
f 94/176/69 92/177/69 95/178/69
f 95/178/69 92/177/69 93/179/69
s 14
f 139/205/153 141/151/153 22/206/153
f 22/206/153 141/151/153 18/153/153
s 15
f 138/68/154 140/207/155 139/74/155
f 139/208/155 140/180/155 141/182/156
s 16
f 17/209/157 21/70/158 18/210/158
f 18/210/158 21/70/158 22/72/159
s 17
f 21/70/160 17/209/161 138/68/161
f 138/68/161 17/209/161 140/207/161

# 282 faces
